<svg viewBox="0 0 48 48" xmlns="http://www.w3.org/2000/svg"><g fill="#fff"><path d="M22.23 39.88a.875.875 0 01-.874-.877v-3.291a.874.874 0 111.746 0v3.291a.875.875 0 01-.873.877zm3.54 0a.875.875 0 01-.873-.877v-3.291a.875.875 0 111.747 0v3.291a.875.875 0 01-.873.877z"/><path d="M23.976 40.671a.875.875 0 01-.874-.876V34.92c0-.484.391-.877.874-.877.482 0 .873.393.873.877v4.875a.875.875 0 01-.873.876z"/></g><path fill="#464747" d="M36.512 14.881h-25.15l.06 2.023h25.09z"/><path d="M11.407 14.881s-.815-6.357 4.59-7.469a4.92 4.92 0 01.99-.083h13.418c.985 0 1.966.23 2.815.732 1.49.879 3.292 2.778 3.292 6.82H11.407zM40.03 28.498c-.19 3.05-3.52 5.6-3.52 5.6 0 .03-.01.06-.01.09-.06.37-.12.72-.19 1.04-1.75 7.89-8.74 3.8-8.74 3.8h-7.48c-7.07 2.46-8.4-2.06-8.66-4.14-.06-.48-.07-.83-.07-.96v-.05c-.05 0-2.21-2.44-2.21-2.44-1.18-1.19-1.18-2.87-1.18-2.87 0-1.91 1.09-2.74 1.68-3.05.22-.11.37-.15.37-.15v-7.2h1.4v-1.26h25.09v1.56l1.09.04v6.9c.02 0 .04.01.06.01 2.45.35 2.37 3.08 2.37 3.08z" fill="#f4f4f4"/><path d="M15.721 28.948s2.79-.289 3.878-1.48c1.123-1.23 5.45-3.155 8.686 0 0 0 1.603 1.963 4.07 1.834 0 0-2.056 1.504-4.294.006 0 0-3.814-2.903-7.725-.231 0 0-1.958 1.47-4.615-.13z" fill="#464747"/><ellipse cx="16.46" cy="36.096" rx="1.638" ry="1.645" fill="#464747"/><ellipse cx="31.533" cy="36.096" rx="1.638" ry="1.645" fill="#464747"/><path d="M22.442 19.371h-8.957s.261 7.117 4.479 3.733l4.478-3.733zm2.668 0h8.958s-.26 7.117-4.479 3.733l-4.478-3.733z" fill="#464747"/><path d="M19.21 27.508v2.39c-.22.082-.47.15-.75.15v-1.97c.27-.163.53-.353.75-.57zm10.27.924v1.915a2.4 2.4 0 01-.75-.312v-2.378c.19.231.44.503.75.775zm-6.95-3.452v3.516c-.25.068-.5.176-.75.299V25.28c.24-.123.49-.218.75-.3zm3.53.177v3.764a4.115 4.115 0 00-.75-.286v-3.763c.25.068.5.15.75.285z" fill="#f4f4f4"/><path d="M21.78 39.88a.875.875 0 01-.873-.877v-3.291a.874.874 0 111.746 0v3.291a.875.875 0 01-.873.877zm4.122 0a.875.875 0 01-.874-.877v-3.291a.875.875 0 111.747 0v3.291a.875.875 0 01-.873.877zm-2.062.791a.875.875 0 01-.872-.876V34.92c0-.484.39-.877.873-.877.482 0 .873.393.873.877v4.875a.875.875 0 01-.873.876zM10.02 25.368s1.485-.243 2.58 1.656c0 0-.17-1.996-2.58-2.479v.823zm1.34 8.51l1.417 1.34-1.363-.463s-.087-.576-.054-.877zm26.242-8.468s-1.485-.243-2.58 1.657c0 0 .17-1.997 2.58-2.48v.823zm-1.094 8.694l-1.417 1.341 1.263-.43s.187-.61.154-.91z" fill="#ccc"/></svg>